<?xml version="1.0" encoding="utf-8"?>
<!-- Generator: Adobe Illustrator 17.0.0, SVG Export Plug-In . SVG Version: 6.00 Build 0)  -->
<!DOCTYPE svg PUBLIC "-//W3C//DTD SVG 1.1//EN" "http://www.w3.org/Graphics/SVG/1.1/DTD/svg11.dtd">
<svg version="1.1" id="Vrstva_1" xmlns="http://www.w3.org/2000/svg" xmlns:xlink="http://www.w3.org/1999/xlink" x="0px" y="0px"
	 width="600px" height="1200px" viewBox="0 0 600 1200" enable-background="new 0 0 600 1200" xml:space="preserve">
<g id="BACKGROUND">
	<ellipse fill="#ADADAD" cx="296.976" cy="736.528" rx="262.144" ry="5.506"/>
</g>
<g id="OBJECTS">
	<g>
		<path fill="#4E0A06" d="M319.844,733.054c0,3.035-8.889,5.495-19.853,5.495c-10.965,0-19.854-2.46-19.854-5.495
			s9.952-6.736,20.917-6.736C312.019,726.318,319.844,730.019,319.844,733.054z"/>
		
			<radialGradient id="SVGID_1_" cx="-753.862" cy="-270.9272" r="67.8307" gradientTransform="matrix(1 0 0 1 963 965)" gradientUnits="userSpaceOnUse">
			<stop  offset="0" style="stop-color:#FFFDF0"/>
			<stop  offset="1" style="stop-color:#F3EDC9"/>
		</radialGradient>
		<path fill="url(#SVGID_1_)" d="M298.872,720.891c-7.052-42.532-31.385-49.648-54.258-51c-26.515-1.564-47.891,4.923-68.56,11.201
			c-18.582,5.643-39.821,11.326-59.018,9.877l3.867-2.741c18.754,1.409,36.092-3.858,54.454-9.434
			c20.871-6.337,42.45-12.885,69.399-11.299c22.426,1.325,49.114,8.548,56.484,53.004L298.872,720.891z"/>
		
			<radialGradient id="SVGID_2_" cx="-575.3405" cy="-267.2015" r="65.1661" gradientTransform="matrix(1 0 0 1 963 965)" gradientUnits="userSpaceOnUse">
			<stop  offset="0" style="stop-color:#FFFDF0"/>
			<stop  offset="1" style="stop-color:#F3EDC9"/>
		</radialGradient>
		<path fill="url(#SVGID_2_)" d="M300.593,719.968l-2.386-0.263c1.522-13.799,9.886-26.865,22.375-34.951
			c11.166-7.232,30.58-13.881,59.667-4.513c8.961,2.887,17.057,5.551,24.2,7.903c31.775,10.457,49.278,16.218,70.411,17.803
			l2.252,2.56c-21.423-1.607-41.458-7.568-73.413-18.084c-7.14-2.35-15.233-5.013-24.186-7.897
			c-28.192-9.084-46.896-2.706-57.627,4.242C309.996,694.468,302.036,706.878,300.593,719.968z"/>
		<g>
			<polygon fill="#4E0A06" points="281.843,704.206 221.479,703.864 90.952,725.375 74.928,732.13 281.843,732.13 			"/>
			
				<radialGradient id="SVGID_3_" cx="-768.7343" cy="-256.5289" r="125.5546" gradientTransform="matrix(1 0 0 1 963 965)" gradientUnits="userSpaceOnUse">
				<stop  offset="0" style="stop-color:#FFFDF0"/>
				<stop  offset="1" style="stop-color:#F3EDC9"/>
			</radialGradient>
			<path fill="url(#SVGID_3_)" d="M299.4,717.495c-5.089-23.716-39.108-48.472-88.132-28.643
				c-49.023,19.83-78.19,24.435-110.138,24.435c-7.706,8.092-19.305,17.428-19.305,17.428s77.838,2.565,112.919-5.508
				c43.094-9.917,67.2-24.236,85.929,6.059c8.502-5.504,19.279-5.508,19.279-5.508S300.477,722.55,299.4,717.495z"/>
			<path fill="#FFFFFF" d="M101.13,715.628c31.948,0,61.115-4.605,110.138-24.435s83.043,4.927,88.132,28.643
				c0.407,1.909,0.584,3.554,0.648,4.862c0.074-1.333,0.064-3.86-0.648-7.204c-5.088-23.716-39.108-48.472-88.132-28.643
				c-49.023,19.83-78.19,24.435-110.138,24.435c-7.706,8.092-19.305,17.428-19.305,17.428S95.749,721.278,101.13,715.628z"/>
			<g>
				<path fill="#C6C2A6" d="M104.983,719.452c0,0,0.475,0.129,1.365,0.371c0.443,0.131,0.994,0.275,1.656,0.365
					c0.661,0.098,1.404,0.264,2.255,0.366c0.853,0.092,1.796,0.194,2.824,0.305c1.032,0.059,2.148,0.122,3.341,0.19
					c2.389,0.074,5.083,0.094,8.023,0.04c5.88-0.114,12.727-0.674,20.012-1.617c3.643-0.465,7.392-1.07,11.184-1.764
					c3.792-0.692,7.625-1.504,11.42-2.46c1.911-0.426,3.79-0.972,5.67-1.486c1.888-0.488,3.733-1.09,5.568-1.673
					c3.701-1.185,7.344-2.267,10.869-3.36c3.53-1.066,6.942-2.096,10.178-3.073c3.255-0.922,6.394-1.618,9.255-2.353
					c2.873-0.7,5.492-1.395,7.85-1.852c2.357-0.452,4.412-0.846,6.104-1.171c1.686-0.349,3.028-0.538,3.942-0.663
					c0.913-0.132,1.399-0.202,1.399-0.202s-0.481,0.102-1.384,0.294c-0.451,0.096-1.006,0.214-1.66,0.353
					c-0.649,0.159-1.396,0.341-2.232,0.545c-1.671,0.406-3.699,0.9-6.026,1.465c-1.169,0.258-2.383,0.651-3.675,1.016
					c-1.292,0.364-2.649,0.746-4.066,1.145c-2.829,0.818-5.915,1.598-9.134,2.615c-3.211,1.056-6.598,2.169-10.101,3.32
					c-3.506,1.133-7.13,2.304-10.812,3.495c-1.852,0.599-3.715,1.217-5.619,1.72c-1.897,0.528-3.792,1.091-5.72,1.528
					c-3.837,0.945-7.708,1.745-11.536,2.424c-3.826,0.693-7.619,1.207-11.295,1.631c-7.356,0.843-14.27,1.121-20.188,1.084
					c-1.48-0.041-2.898-0.022-4.246-0.109c-1.347-0.092-2.625-0.15-3.823-0.258c-1.196-0.127-2.315-0.245-3.35-0.355
					c-1.028-0.162-1.973-0.311-2.826-0.445c-0.852-0.142-1.603-0.352-2.256-0.497c-0.659-0.134-1.197-0.313-1.631-0.473
					C105.448,719.611,104.983,719.452,104.983,719.452z"/>
			</g>
			<g>
				<path fill="#C6C2A6" d="M191.679,705.965c0,0,1.593-0.59,4.38-1.622c2.799-0.996,6.774-2.495,11.618-4.088
					c2.422-0.798,5.052-1.644,7.854-2.486c2.802-0.84,5.769-1.695,8.878-2.441c3.109-0.739,6.335-1.481,9.66-2.006
					c3.319-0.55,6.719-0.984,10.145-1.175c3.422-0.189,6.868-0.199,10.242,0.131c3.369,0.319,6.682,0.871,9.778,1.822
					c3.09,0.942,6.025,2.092,8.581,3.602c0.662,0.334,1.278,0.728,1.877,1.126c0.601,0.395,1.204,0.767,1.775,1.164
					c0.551,0.424,1.093,0.841,1.626,1.251c0.539,0.4,1.052,0.811,1.517,1.259c0.948,0.873,1.897,1.663,2.662,2.557
					c0.789,0.867,1.567,1.66,2.182,2.504c0.631,0.83,1.27,1.566,1.771,2.315c0.5,0.747,0.959,1.434,1.374,2.054
					c0.432,0.607,0.745,1.196,1.026,1.702c0.281,0.505,0.521,0.934,0.715,1.283c0.387,0.695,0.594,1.066,0.594,1.066
					s-0.234-0.354-0.674-1.019c-0.457-0.652-1.044-1.662-1.937-2.845c-0.446-0.591-0.939-1.245-1.476-1.956
					c-0.536-0.711-1.211-1.404-1.877-2.185c-0.651-0.796-1.463-1.533-2.283-2.338c-0.795-0.832-1.741-1.586-2.698-2.402
					c-0.468-0.421-0.983-0.804-1.522-1.176c-0.531-0.38-1.072-0.768-1.623-1.162c-0.569-0.366-1.168-0.707-1.764-1.071
					c-0.594-0.367-1.203-0.728-1.857-1.029c-0.643-0.319-1.295-0.642-1.954-0.969c-0.683-0.276-1.374-0.555-2.072-0.837
					c-0.69-0.303-1.422-0.517-2.15-0.763c-0.732-0.233-1.457-0.512-2.224-0.681c-3.008-0.88-6.235-1.315-9.509-1.625
					c-3.282-0.303-6.648-0.271-10-0.07c-3.356,0.167-6.704,0.574-9.98,1.097c-3.279,0.51-6.489,1.15-9.581,1.839
					c-3.089,0.706-6.069,1.432-8.884,2.174c-2.815,0.741-5.465,1.493-7.906,2.205c-4.883,1.443-8.952,2.645-11.8,3.487
					C193.31,705.49,191.679,705.965,191.679,705.965z"/>
			</g>
			<g>
				<path fill="#C6C2A6" d="M133.496,729.084c0,0,0.601-0.035,1.728-0.102c1.126-0.075,2.777-0.186,4.879-0.326
					c2.1-0.16,4.649-0.361,7.567-0.649c2.919-0.284,6.206-0.648,9.79-1.059c3.583-0.418,7.454-0.948,11.54-1.556
					c4.08-0.646,8.373-1.375,12.795-2.218c2.212-0.418,4.456-0.867,6.714-1.379c2.268-0.468,4.536-1.055,6.83-1.614
					c4.565-1.194,9.182-2.502,13.672-4.149c2.259-0.768,4.511-1.636,6.788-2.435c2.274-0.794,4.544-1.57,6.824-2.265
					c4.553-1.403,9.108-2.589,13.599-3.361c4.481-0.81,8.911-1.135,13.097-0.972c2.095,0.061,4.123,0.315,6.07,0.616
					c1.937,0.366,3.804,0.769,5.539,1.353c3.498,1.082,6.501,2.639,8.974,4.258c2.488,1.608,4.441,3.303,5.964,4.766
					c0.379,0.368,0.738,0.717,1.076,1.044c0.318,0.347,0.615,0.673,0.892,0.976c0.561,0.599,1.019,1.123,1.369,1.568
					c0.717,0.872,1.099,1.338,1.099,1.338s-0.407-0.444-1.169-1.276c-0.372-0.424-0.857-0.922-1.447-1.488
					c-0.291-0.286-0.603-0.594-0.937-0.922c-0.348-0.312-0.719-0.644-1.11-0.994c-1.568-1.391-3.567-2.989-6.076-4.471
					c-2.498-1.49-5.489-2.887-8.918-3.877c-1.704-0.529-3.535-0.876-5.429-1.187c-1.906-0.245-3.886-0.446-5.932-0.455
					c-4.089-0.059-8.402,0.384-12.801,1.186c-4.404,0.794-8.889,2-13.382,3.424c-2.249,0.705-4.496,1.494-6.743,2.299
					c-2.244,0.807-4.477,1.694-6.774,2.488c-4.568,1.634-9.241,2.916-13.855,4.084c-2.316,0.545-4.607,1.117-6.894,1.57
					c-2.278,0.498-4.538,0.931-6.766,1.333c-4.449,0.842-8.785,1.439-12.894,1.992c-4.115,0.511-8.01,0.947-11.612,1.279
					c-7.203,0.683-13.228,0.928-17.441,1.085c-2.109,0.065-3.765,0.087-4.894,0.087
					C134.099,729.081,133.496,729.084,133.496,729.084z"/>
			</g>
			<rect x="74.928" y="732.118" fill="#9F0C24" width="206.915" height="3.468"/>
			<g>
				<path fill="#C6C2A6" d="M215.305,711.971c0,0,0.631-0.331,1.737-0.911c0.548-0.298,1.242-0.604,2.037-0.962
					c0.398-0.179,0.821-0.37,1.268-0.571c0.456-0.176,0.935-0.361,1.435-0.555c0.996-0.402,2.097-0.773,3.264-1.16
					c1.159-0.415,2.416-0.74,3.706-1.109c1.305-0.311,2.646-0.669,4.03-0.937c0.691-0.138,1.388-0.277,2.087-0.417
					c0.704-0.115,1.411-0.23,2.118-0.346c1.413-0.236,2.846-0.334,4.246-0.494c1.409-0.077,2.791-0.214,4.137-0.209
					c0.672-0.003,1.332-0.043,1.979-0.016c0.646,0.03,1.279,0.06,1.895,0.089c1.23,0.053,2.388,0.224,3.456,0.331
					c1.059,0.196,2.037,0.328,2.88,0.561c0.84,0.242,1.584,0.403,2.172,0.621c1.164,0.454,1.83,0.713,1.83,0.713
					s-0.683-0.201-1.878-0.554c-0.595-0.177-1.347-0.287-2.189-0.469c-0.846-0.171-1.824-0.234-2.872-0.394
					c-1.061-0.061-2.206-0.183-3.424-0.185c-1.218-0.017-2.499-0.014-3.827,0.045c-1.328,0.012-2.695,0.167-4.085,0.262
					c-1.384,0.177-2.797,0.295-4.194,0.544c-0.701,0.105-1.402,0.209-2.1,0.314c-0.694,0.129-1.386,0.257-2.072,0.385
					c-1.374,0.247-2.707,0.584-4.005,0.874c-1.279,0.363-2.543,0.618-3.706,0.984c-1.173,0.336-2.281,0.66-3.284,1.018
					c-1.013,0.333-1.935,0.651-2.741,0.966c-0.811,0.301-1.523,0.559-2.09,0.821C215.962,711.694,215.305,711.971,215.305,711.971z"
					/>
			</g>
		</g>
		<g>
			<polygon fill="#4E0A06" points="317.749,704.206 378.113,703.864 508.64,725.375 524.664,732.13 317.749,732.13 			"/>
			
				<radialGradient id="SVGID_4_" cx="-957.4388" cy="-256.5289" r="125.5546" gradientTransform="matrix(-1 0 0 1 -552.1118 965)" gradientUnits="userSpaceOnUse">
				<stop  offset="0" style="stop-color:#FFFDF0"/>
				<stop  offset="1" style="stop-color:#F3EDC9"/>
			</radialGradient>
			<path fill="url(#SVGID_4_)" d="M300.192,717.495c5.088-23.716,39.108-48.472,88.132-28.643
				c49.023,19.83,78.19,24.435,110.138,24.435c7.706,8.092,19.305,17.428,19.305,17.428s-77.838,2.565-112.919-5.508
				c-43.094-9.917-67.2-24.236-85.929,6.059c-8.502-5.504-19.279-5.508-19.279-5.508S299.115,722.55,300.192,717.495z"/>
			<path fill="#FFFFFF" d="M498.462,715.628c-31.948,0-61.115-4.605-110.138-24.435s-83.043,4.927-88.132,28.643
				c-0.407,1.909-0.584,3.554-0.648,4.862c-0.074-1.333-0.064-3.86,0.648-7.204c5.088-23.716,39.108-48.472,88.132-28.643
				c49.023,19.83,78.19,24.435,110.138,24.435c7.706,8.092,19.305,17.428,19.305,17.428S503.843,721.278,498.462,715.628z"/>
			<g>
				<path fill="#C6C2A6" d="M494.609,719.452c0,0-0.465,0.16-1.337,0.46c-0.433,0.16-0.972,0.339-1.631,0.473
					c-0.653,0.146-1.404,0.356-2.256,0.497c-0.853,0.134-1.798,0.283-2.826,0.445c-1.035,0.11-2.154,0.228-3.35,0.355
					c-1.198,0.108-2.476,0.166-3.823,0.258c-1.348,0.087-2.766,0.068-4.246,0.109c-5.918,0.037-12.832-0.241-20.188-1.084
					c-3.676-0.424-7.469-0.938-11.295-1.631c-3.828-0.679-7.699-1.478-11.536-2.424c-1.928-0.436-3.823-1-5.72-1.528
					c-1.904-0.503-3.767-1.121-5.619-1.72c-3.682-1.19-7.305-2.361-10.812-3.495c-3.503-1.152-6.889-2.265-10.101-3.32
					c-3.219-1.017-6.305-1.797-9.134-2.615c-1.417-0.399-2.775-0.781-4.066-1.145c-1.292-0.364-2.506-0.758-3.675-1.016
					c-2.327-0.566-4.356-1.059-6.026-1.465c-0.836-0.204-1.582-0.387-2.232-0.545c-0.653-0.139-1.209-0.257-1.66-0.353
					c-0.902-0.192-1.384-0.294-1.384-0.294s0.487,0.07,1.399,0.202c0.914,0.125,2.256,0.314,3.942,0.663
					c1.692,0.325,3.747,0.719,6.104,1.171c2.358,0.457,4.977,1.151,7.85,1.852c2.862,0.735,6,1.43,9.255,2.353
					c3.236,0.977,6.648,2.008,10.178,3.073c3.525,1.093,7.168,2.175,10.869,3.36c1.835,0.583,3.68,1.185,5.568,1.673
					c1.88,0.514,3.759,1.059,5.67,1.486c3.795,0.956,7.628,1.768,11.42,2.46c3.792,0.694,7.54,1.298,11.184,1.764
					c7.285,0.943,14.132,1.503,20.012,1.617c2.94,0.055,5.634,0.035,8.023-0.04c1.193-0.068,2.309-0.131,3.341-0.19
					c1.028-0.111,1.972-0.213,2.824-0.305c0.851-0.103,1.594-0.268,2.255-0.366c0.662-0.09,1.213-0.233,1.656-0.365
					C494.134,719.581,494.609,719.452,494.609,719.452z"/>
			</g>
			<g>
				<path fill="#C6C2A6" d="M407.913,705.965c0,0-1.631-0.475-4.484-1.307c-2.848-0.842-6.917-2.044-11.8-3.487
					c-2.442-0.712-5.092-1.464-7.906-2.205c-2.815-0.742-5.795-1.468-8.884-2.174c-3.092-0.689-6.302-1.33-9.581-1.839
					c-3.276-0.523-6.624-0.93-9.98-1.097c-3.352-0.201-6.717-0.233-10,0.07c-3.275,0.31-6.502,0.745-9.509,1.625
					c-0.766,0.169-1.491,0.448-2.224,0.681c-0.728,0.246-1.461,0.46-2.15,0.763c-0.699,0.282-1.39,0.561-2.072,0.837
					c-0.66,0.327-1.311,0.65-1.954,0.969c-0.654,0.301-1.263,0.662-1.857,1.029c-0.596,0.363-1.195,0.704-1.764,1.071
					c-0.55,0.394-1.092,0.782-1.623,1.162c-0.539,0.372-1.054,0.754-1.522,1.176c-0.957,0.816-1.903,1.569-2.698,2.402
					c-0.82,0.805-1.632,1.541-2.283,2.338c-0.667,0.781-1.342,1.474-1.877,2.185c-0.537,0.712-1.031,1.366-1.476,1.956
					c-0.893,1.182-1.479,2.193-1.937,2.845c-0.44,0.664-0.674,1.019-0.674,1.019s0.207-0.371,0.594-1.066
					c0.194-0.348,0.433-0.778,0.715-1.283c0.281-0.506,0.594-1.095,1.026-1.702c0.415-0.62,0.874-1.307,1.374-2.054
					c0.5-0.749,1.14-1.485,1.771-2.315c0.615-0.845,1.393-1.637,2.182-2.504c0.764-0.893,1.714-1.684,2.662-2.557
					c0.465-0.448,0.979-0.858,1.517-1.259c0.532-0.409,1.074-0.826,1.626-1.251c0.571-0.397,1.174-0.769,1.775-1.164
					c0.599-0.399,1.215-0.793,1.877-1.126c2.557-1.509,5.491-2.66,8.581-3.602c3.096-0.951,6.409-1.503,9.778-1.822
					c3.374-0.33,6.82-0.32,10.242-0.131c3.425,0.191,6.826,0.625,10.145,1.175c3.325,0.524,6.551,1.266,9.66,2.006
					c3.109,0.746,6.077,1.602,8.878,2.441c2.801,0.842,5.432,1.688,7.854,2.486c4.844,1.593,8.819,3.093,11.618,4.088
					C406.32,705.376,407.913,705.965,407.913,705.965z"/>
			</g>
			<g>
				<path fill="#C6C2A6" d="M466.096,729.084c0,0-0.602-0.003-1.731-0.009c-1.129-0.001-2.785-0.023-4.894-0.087
					c-4.213-0.157-10.238-0.402-17.441-1.085c-3.602-0.332-7.497-0.768-11.612-1.279c-4.109-0.553-8.445-1.149-12.894-1.992
					c-2.228-0.402-4.489-0.836-6.766-1.333c-2.287-0.453-4.578-1.026-6.894-1.57c-4.614-1.167-9.286-2.45-13.855-4.084
					c-2.297-0.794-4.53-1.682-6.774-2.488c-2.248-0.805-4.494-1.594-6.743-2.299c-4.493-1.424-8.978-2.63-13.382-3.424
					c-4.4-0.802-8.713-1.245-12.801-1.186c-2.046,0.009-4.026,0.21-5.932,0.455c-1.895,0.311-3.725,0.658-5.429,1.187
					c-3.429,0.99-6.42,2.388-8.918,3.877c-2.509,1.482-4.508,3.08-6.076,4.471c-0.391,0.35-0.761,0.682-1.11,0.994
					c-0.333,0.328-0.646,0.636-0.937,0.922c-0.59,0.566-1.075,1.064-1.447,1.488c-0.762,0.832-1.169,1.276-1.169,1.276
					s0.382-0.465,1.099-1.338c0.35-0.445,0.808-0.969,1.369-1.568c0.277-0.303,0.575-0.628,0.892-0.976
					c0.338-0.328,0.697-0.676,1.076-1.044c1.523-1.464,3.476-3.159,5.964-4.766c2.473-1.62,5.476-3.176,8.974-4.258
					c1.735-0.585,3.601-0.987,5.539-1.353c1.947-0.3,3.975-0.555,6.07-0.616c4.186-0.164,8.615,0.162,13.097,0.972
					c4.491,0.772,9.046,1.959,13.599,3.361c2.28,0.695,4.55,1.471,6.824,2.265c2.276,0.799,4.529,1.667,6.788,2.435
					c4.489,1.647,9.107,2.955,13.672,4.149c2.294,0.559,4.561,1.146,6.83,1.614c2.258,0.513,4.502,0.961,6.714,1.379
					c4.422,0.843,8.715,1.572,12.795,2.218c4.086,0.608,7.957,1.138,11.54,1.556c3.583,0.411,6.871,0.775,9.79,1.059
					c2.918,0.288,5.468,0.488,7.567,0.649c2.102,0.14,3.753,0.251,4.879,0.326C465.494,729.049,466.096,729.084,466.096,729.084z"/>
			</g>
			<rect x="317.749" y="732.118" fill="#9F0C24" width="206.915" height="3.468"/>
			<g>
				<path fill="#C6C2A6" d="M384.287,711.971c0,0-0.657-0.277-1.807-0.761c-0.567-0.261-1.279-0.519-2.09-0.821
					c-0.806-0.315-1.728-0.633-2.741-0.966c-1.003-0.358-2.111-0.681-3.284-1.018c-1.163-0.366-2.428-0.622-3.706-0.984
					c-1.297-0.29-2.631-0.627-4.005-0.874c-0.686-0.127-1.378-0.256-2.072-0.385c-0.698-0.104-1.399-0.209-2.1-0.314
					c-1.396-0.249-2.81-0.367-4.194-0.544c-1.391-0.095-2.758-0.25-4.085-0.262c-1.327-0.06-2.609-0.062-3.827-0.045
					c-1.218,0.002-2.363,0.124-3.424,0.185c-1.047,0.16-2.026,0.224-2.872,0.394c-0.842,0.182-1.594,0.292-2.189,0.469
					c-1.195,0.352-1.878,0.554-1.878,0.554s0.665-0.259,1.83-0.713c0.587-0.219,1.331-0.379,2.172-0.621
					c0.843-0.233,1.821-0.365,2.88-0.561c1.068-0.107,2.225-0.278,3.456-0.331c0.616-0.029,1.248-0.059,1.895-0.089
					c0.647-0.028,1.307,0.012,1.979,0.016c1.346-0.005,2.728,0.132,4.137,0.209c1.4,0.16,2.833,0.258,4.246,0.494
					c0.707,0.115,1.414,0.231,2.118,0.346c0.699,0.14,1.396,0.279,2.087,0.417c1.384,0.268,2.725,0.627,4.03,0.937
					c1.29,0.369,2.547,0.693,3.706,1.109c1.167,0.387,2.268,0.759,3.264,1.16c0.5,0.193,0.979,0.378,1.435,0.555
					c0.446,0.201,0.87,0.392,1.268,0.571c0.795,0.358,1.489,0.664,2.037,0.962C383.655,711.64,384.287,711.971,384.287,711.971z"/>
			</g>
		</g>
		<path fill="none" stroke="#9F0C24" stroke-width="1.8913" stroke-miterlimit="10" d="M279.442,733.028
			c2.446-3.012,25.008-13.452,41.589,0"/>
		<path fill="none" stroke="#9F0C24" stroke-width="1.2797" stroke-miterlimit="10" d="M279.442,734.618
			c2.446,1.379,25.008,6.159,41.589,0"/>
		
			<radialGradient id="SVGID_5_" cx="-697.6291" cy="-309.933" r="52.4175" gradientTransform="matrix(1 0 0 1 963 965)" gradientUnits="userSpaceOnUse">
			<stop  offset="0" style="stop-color:#FFFDF0"/>
			<stop  offset="1" style="stop-color:#F3EDC9"/>
		</radialGradient>
		<path fill="url(#SVGID_5_)" d="M301.392,719.852l-2.4-0.03c0.273-21.996-6.715-49.239-18.692-72.875
			c-13.374-26.393-31.471-45.74-50.958-54.475l0.982-2.19c19.986,8.959,38.495,28.698,52.117,55.581
			C294.585,669.827,301.67,697.486,301.392,719.852z"/>
		
			<radialGradient id="SVGID_6_" cx="-622.1884" cy="-301.7115" r="49.7756" gradientTransform="matrix(1 0 0 1 963 965)" gradientUnits="userSpaceOnUse">
			<stop  offset="0" style="stop-color:#FFFDF0"/>
			<stop  offset="1" style="stop-color:#F3EDC9"/>
		</radialGradient>
		<path fill="url(#SVGID_6_)" d="M298.993,719.883c-1.166-30.064,21.973-94.131,82.964-113.189l0.715,2.29
			c-59.752,18.673-82.422,81.382-81.281,110.805L298.993,719.883z"/>
	</g>
	<g>
		<g>
			<circle fill="#C3E1CC" cx="294.734" cy="527.666" r="4.945"/>
			<circle fill="#C3E1CC" cx="410.945" cy="458.434" r="4.327"/>
			<circle fill="#C3E1CC" cx="494.394" cy="561.046" r="4.327"/>
			<circle fill="#C3E1CC" cx="436.289" cy="662.421" r="2.473"/>
			<circle fill="#C3E1CC" cx="166.779" cy="476.978" r="7.418"/>
			<circle fill="#C3E1CC" cx="117.328" cy="569.082" r="2.473"/>
			<circle fill="#C3E1CC" cx="90.747" cy="673.548" r="2.473"/>
		</g>
		<g>
			<circle fill="#C2E0CB" cx="353.59" cy="490.342" r="41.359"/>
			<circle fill="none" stroke="#C3E1CC" stroke-miterlimit="10" cx="353.59" cy="490.342" r="45.052"/>
			<g>
				<path fill="#F28C00" d="M339.793,521.451l-18.246,4.35c-1.184,0.282-2.167-0.683-1.906-1.871l4.014-18.322L339.793,521.451z"/>
				
					<linearGradient id="SVGID_7_" gradientUnits="userSpaceOnUse" x1="-486.098" y1="1439.1798" x2="-478.2877" y2="1428.5366" gradientTransform="matrix(-0.7135 -0.7006 0.7006 -0.7135 -1022.182 1200.2172)">
					<stop  offset="0" style="stop-color:#1D1D1B"/>
					<stop  offset="1" style="stop-color:#1D1D1B;stop-opacity:0"/>
				</linearGradient>
				<path opacity="0.38" fill="url(#SVGID_7_)" enable-background="new    " d="M324.158,525.179l15.635-3.728l-16.137-15.843
					l-1.314,5.996C327.756,514.225,328.329,520.814,324.158,525.179z"/>
				<path fill="#F28C00" d="M372.427,452.932c0.861-0.877,2.14-1.203,3.313-0.835c2.185,0.684,5.887,2.337,9.882,6.259
					c3.981,3.909,5.657,7.523,6.352,9.664c0.376,1.158,0.07,2.429-0.784,3.298l-49.343,50.258c-0.566,0.577-1.411,0.785-2.178,0.529
					c-2.03-0.675-6.145-2.417-10.164-6.363c-4.048-3.974-6.041-8.262-6.842-10.362c-0.296-0.775-0.112-1.65,0.469-2.242
					L372.427,452.932z"/>
				<path opacity="0.44" fill="#1D1D1B" enable-background="new    " d="M377.114,467.026c5.316,5.219,7.204,9.379,7.727,10.76
					l3.66-3.728c-0.523-1.381-2.411-5.541-7.727-10.76c-5.337-5.24-9.621-7.122-11.024-7.64l-3.66,3.727
					C367.493,459.904,371.777,461.786,377.114,467.026z"/>
				<path fill="#DE680E" d="M368.859,455.902c0,0,4.965,1.374,11.514,7.805c6.549,6.43,7.896,11.252,7.896,11.252l-42.085,42.865
					c0,0-5.16-2.129-10.995-7.857c-5.835-5.729-8.415-11.2-8.415-11.2L368.859,455.902z"/>
				<path fill="#521C00" d="M347.816,516.162c0,0-5.16-2.129-10.995-7.857c-5.835-5.729-8.415-11.2-8.415-11.2
					c0.507-0.516,1.252-1.275,1.252-1.275s2.58,5.471,8.415,11.2c5.835,5.728,10.995,7.857,10.995,7.857L347.816,516.162z"/>
				<path fill="#521C00" d="M350.019,513.918c0,0-5.16-2.129-10.995-7.857c-5.835-5.729-8.415-11.2-8.415-11.2
					c0.437-0.446,1.708-1.74,1.708-1.74s2.58,5.471,8.415,11.199c5.835,5.729,10.995,7.857,10.995,7.857L350.019,513.918z"/>
				<path fill="#521C00" d="M385.965,477.305c0,0-2.223-5.12-8.058-10.849c-5.835-5.729-11.352-8.208-11.352-8.208
					c-0.101-0.099-1.252,1.275-1.252,1.275s5.517,2.479,11.352,8.208s8.058,10.849,8.058,10.849L385.965,477.305z"/>
				<path fill="#521C00" d="M383.763,479.549c0,0-2.223-5.12-8.058-10.849c-5.835-5.729-11.352-8.208-11.352-8.208
					c-0.415,0.422-1.708,1.74-1.708,1.74s5.517,2.479,11.352,8.208s8.058,10.849,8.058,10.849L383.763,479.549z"/>
				<path opacity="0.27" fill="#1D1D1B" enable-background="new    " d="M339.67,522.106c0.767,0.255,1.611,0.048,2.178-0.529
					l3.885-3.957c0.291,0.138,0.451,0.204,0.451,0.204l42.085-42.865c0,0-0.048-0.171-0.169-0.492l3.091-3.148
					c0.854-0.869,1.16-2.14,0.784-3.298c-0.364-1.121-1.001-2.648-2.093-4.407l-55.158,56.181
					C336.768,521.024,338.541,521.731,339.67,522.106z"/>
				<path opacity="0.18" fill="#FFFFFF" enable-background="new    " d="M326.996,499.205l-3.863,3.934
					c-0.581,0.592-0.765,1.467-0.469,2.242c0.271,0.711,0.679,1.672,1.257,2.787l54.156-55.161
					c-0.892-0.413-1.684-0.707-2.337-0.911c-1.173-0.368-2.452-0.042-3.313,0.835l-3.078,3.135c-0.319-0.118-0.49-0.165-0.49-0.165
					l-42.085,42.865C326.774,498.767,326.848,498.923,326.996,499.205z"/>
				<path opacity="0.48" fill="#FFFFFF" enable-background="new    " d="M319.86,524.052l2.542-11.233
					C322.403,512.819,322.616,520.894,319.86,524.052z"/>
			</g>
		</g>
		<g>
			<circle fill="#C2E0CB" cx="248.41" cy="490.342" r="41.359"/>
			<circle fill="none" stroke="#C3E1CC" stroke-width="0.9833" stroke-miterlimit="10" cx="248.41" cy="490.342" r="45.208"/>
			<g>
				
					<ellipse transform="matrix(0.9993 0.038 -0.038 0.9993 18.7931 -9.1093)" fill="none" stroke="#009A9F" stroke-width="2.0754" stroke-miterlimit="10" cx="249.035" cy="489.832" rx="13.189" ry="23.034"/>
				<path fill="none" stroke="#009A9F" stroke-width="2.0754" stroke-miterlimit="10" d="M258.076,497.669
					c-11.53,8.562-24.922,11.993-29.912,7.663c-4.99-4.33,0.313-14.781,11.843-23.343c11.53-8.562,24.922-11.993,29.912-7.663
					C274.909,478.656,269.606,489.107,258.076,497.669z"/>
				<path fill="none" stroke="#009A9F" stroke-width="2.0754" stroke-miterlimit="10" d="M258.645,482.698
					c10.847,9.413,15.34,20.236,10.037,24.174c-5.304,3.939-18.397-0.499-29.244-9.912s-15.34-20.236-10.037-24.174
					C234.705,468.848,247.798,473.285,258.645,482.698z"/>
				
					<ellipse transform="matrix(0.9993 0.038 -0.038 0.9993 18.7931 -9.1092)" fill="#E4051F" cx="249.032" cy="489.834" rx="4.79" ry="4.606"/>
			</g>
		</g>
		<g>
			<circle fill="#C2E0CB" cx="435.63" cy="542.932" r="41.359"/>
			<circle fill="none" stroke="#C3E1CC" stroke-miterlimit="10" cx="435.63" cy="542.932" r="45.975"/>
			<g>
				<path fill="#C88300" d="M417.177,573.49l24.464,5.418c0,0-1.399-8.591-10.807-10.785
					C423.278,566.361,417.177,573.49,417.177,573.49z"/>
				<path fill="#9E5E0D" d="M430.834,568.123c-0.661-0.154-1.306-0.219-1.942-0.248c6.072,2.926,5.8,6.726,4.223,9.145l8.526,1.888
					C441.641,578.907,440.242,570.317,430.834,568.123z"/>
				<path fill="none" stroke="#C88300" stroke-width="2.075" stroke-linecap="round" stroke-miterlimit="10" d="M411.516,556.236
					c7.566,10.236,21.15,14.89,33.842,10.565c15.701-5.35,24.092-22.416,18.742-38.118c-3.898-11.438-14.013-18.997-25.289-20.19"/>
				<circle fill="#75CCF4" cx="435.262" cy="538.316" r="24.138"/>
				<path opacity="0.63" fill="#006F9E" enable-background="new    " d="M450.905,545.926c0.239-0.441,0.461-0.869,0.66-1.273
					c1.589-3.225,2.69-6.641,3.307-10.005l4.471,2.573c-0.05-1.103-0.189-2.21-0.396-3.318l-3.668-2.111
					c0.246-2.439,0.218-4.809-0.079-7.02c-1.149-1.696-2.489-3.218-3.992-4.543c1.265,2.81,1.767,6.323,1.53,10.1l-8.064-4.641
					l4.114-7.324c-0.741-0.502-1.505-0.966-2.295-1.383l-4.141,7.37l-9.402-5.412c3.228-1.625,7.208-2.693,12.055-2.676
					c-2.205-0.977-4.552-1.624-6.975-1.908c-2.763,0.64-5.363,1.661-7.748,3.047l-3.15-1.813c-1.06,0.378-2.067,0.835-3.039,1.341
					l3.679,2.118c-3.121,2.31-5.787,5.312-7.868,8.936l-4.881-2.825c-0.487,0.75-0.941,1.519-1.342,2.317l4.986,2.886
					c-1.721,3.68-2.734,7.661-3.058,11.631l-4.468-2.571c0.051,1.104,0.19,2.211,0.399,3.319l3.949,2.273
					c0.024,3.082,0.489,6.099,1.365,8.912c1.429,1.681,3.072,3.137,4.872,4.353c-2.088-3.372-3.27-7.436-3.528-11.706l8.819,5.076
					l-4.143,7.375c0.768,0.458,1.564,0.864,2.378,1.235l4.087-7.274l7.374,4.244c-2.74,1.638-5.964,2.972-9.748,3.746
					c1.724,0.631,3.525,1.05,5.365,1.275c2.628-0.948,4.954-2.153,7.007-3.51l3.994,2.299c1.061-0.377,2.069-0.834,3.042-1.339
					l-4.655-2.679c3.491-2.786,6.035-5.958,7.831-8.786l5.817,3.366c0.492-0.747,0.95-1.514,1.356-2.309L450.905,545.926z
					 M430.301,520.506l10.74,6.181l-5.736,10.211l-13.086-7.573C423.741,526.672,426.31,523.208,430.301,520.506z M428.329,549.315
					l-10.146-5.84c0.167-3.986,1.102-8.034,2.815-11.763l12.996,7.521L428.329,549.315z M439.196,555.569l-8.546-4.919l5.661-10.077
					l10.919,6.319C445.428,549.709,442.821,552.88,439.196,555.569z M449.163,543.469c-0.175,0.355-0.368,0.729-0.576,1.116
					l-10.965-6.345l5.739-10.216l9.052,5.21C451.881,536.64,450.796,540.154,449.163,543.469z"/>
				<path opacity="0.63" fill="#006F9E" enable-background="new    " d="M458.11,530.53c-0.502-1.472-1.143-2.856-1.884-4.16
					c2.006,11.505-4.569,23.079-15.972,26.965c-11.147,3.798-23.138-1.029-28.75-10.902c0.214,1.227,0.495,2.453,0.909,3.669
					c4.3,12.619,18.015,19.363,30.634,15.063C455.667,556.864,462.41,543.149,458.11,530.53z"/>
			</g>
		</g>
		<g>
			<circle fill="#C2E0CB" cx="481.91" cy="622.869" r="41.359"/>
			<circle fill="none" stroke="#C3E1CC" stroke-width="1.067" stroke-miterlimit="10" cx="481.91" cy="622.869" r="44.128"/>
			<g>
				<polygon fill="#006DA1" points="510.565,657.17 475.782,642.151 487.749,604.283 524.947,611.657 				"/>
				<polygon fill="#006DA1" points="438.149,634.466 475.768,642.146 487.734,604.278 452.531,588.953 				"/>
				<polyline fill="#C79F6E" points="457.062,592.78 453.698,591.261 440.743,633.154 444.143,633.757 				"/>
				<polygon fill="#ECD6A7" points="447.327,634.753 443.927,634.15 456.882,592.258 460.245,593.777 				"/>
				<polyline fill="#C79F6E" points="519.259,612.533 522.889,613.2 509.676,655.011 506.539,653.571 				"/>
				<polygon fill="#ECD6A7" points="503.354,652.577 506.492,654.017 519.704,612.205 516.075,611.538 				"/>
				<polygon fill="#FFFDE8" points="503.261,653.003 476.268,640.611 487.261,605.823 516.474,611.191 				"/>
				<path fill="#EDE7BF" d="M491.479,606.598l-4.218-0.775l-10.993,34.788l26.993,12.392l1.55-4.907
					C485.019,646.739,482.73,628.037,491.479,606.598z"/>
				
					<line fill="none" stroke="#A45E00" stroke-width="1.1577" stroke-linecap="round" stroke-linejoin="round" stroke-miterlimit="10" x1="492.563" y1="612.852" x2="507.708" y2="615.769"/>
				
					<line fill="none" stroke="#A45E00" stroke-width="1.1577" stroke-linecap="round" stroke-linejoin="round" stroke-miterlimit="10" x1="490.953" y1="617.948" x2="505.883" y2="621.545"/>
				
					<line fill="none" stroke="#A45E00" stroke-width="1.1577" stroke-linecap="round" stroke-linejoin="round" stroke-miterlimit="10" x1="489.343" y1="623.043" x2="504.058" y2="627.32"/>
				
					<line fill="none" stroke="#A45E00" stroke-width="1.1577" stroke-linecap="round" stroke-linejoin="round" stroke-miterlimit="10" x1="487.733" y1="628.139" x2="502.484" y2="632.302"/>
				
					<line fill="none" stroke="#A45E00" stroke-width="1.1577" stroke-linecap="round" stroke-linejoin="round" stroke-miterlimit="10" x1="486.122" y1="633.235" x2="500.695" y2="637.964"/>
				
					<line fill="none" stroke="#A45E00" stroke-width="1.1577" stroke-linecap="round" stroke-linejoin="round" stroke-miterlimit="10" x1="484.512" y1="638.331" x2="498.798" y2="643.966"/>
				<polygon fill="#FFFDE8" points="447.043,635.238 476.255,640.607 487.248,605.819 460.255,593.426 				"/>
				
					<line fill="none" stroke="#A45E00" stroke-width="1.1577" stroke-linecap="round" stroke-linejoin="round" stroke-miterlimit="10" x1="478.87" y1="608.525" x2="464.799" y2="602.21"/>
				
					<line fill="none" stroke="#A45E00" stroke-width="1.1577" stroke-linecap="round" stroke-linejoin="round" stroke-miterlimit="10" x1="477.26" y1="613.621" x2="462.974" y2="607.985"/>
				
					<line fill="none" stroke="#A45E00" stroke-width="1.1577" stroke-linecap="round" stroke-linejoin="round" stroke-miterlimit="10" x1="475.649" y1="618.716" x2="461.149" y2="613.761"/>
				
					<line fill="none" stroke="#A45E00" stroke-width="1.1577" stroke-linecap="round" stroke-linejoin="round" stroke-miterlimit="10" x1="474.039" y1="623.812" x2="459.574" y2="618.743"/>
				
					<line fill="none" stroke="#A45E00" stroke-width="1.1577" stroke-linecap="round" stroke-linejoin="round" stroke-miterlimit="10" x1="472.429" y1="628.908" x2="457.785" y2="624.405"/>
				
					<line fill="none" stroke="#A45E00" stroke-width="1.1577" stroke-linecap="round" stroke-linejoin="round" stroke-miterlimit="10" x1="470.819" y1="634.004" x2="455.889" y2="630.407"/>
				<path fill="#EDE7BF" d="M476.255,640.607l10.993-34.788l-3.969-1.822c-2.124,18.438-14.161,42.185-33.479,22.515l-2.758,8.727
					L476.255,640.607z"/>
				<g>
					<path fill="#C79F6E" d="M487.248,605.819c0,0-0.133,0.556-0.365,1.529c-0.256,0.965-0.578,2.358-1.043,4.005
						c-0.467,1.646-0.976,3.578-1.585,5.627c-0.597,2.053-1.276,4.23-1.951,6.408c-0.698,2.171-1.393,4.343-2.084,6.366
						c-0.677,2.028-1.372,3.901-1.936,5.516s-1.103,2.939-1.449,3.877c-0.369,0.93-0.58,1.461-0.58,1.461s0.133-0.556,0.365-1.529
						c0.256-0.965,0.576-2.359,1.042-4.005c0.467-1.646,0.974-3.578,1.585-5.627c0.597-2.053,1.277-4.23,1.953-6.408
						c0.699-2.171,1.394-4.342,2.085-6.366c0.679-2.027,1.372-3.901,1.936-5.516c0.565-1.615,1.103-2.94,1.448-3.877
						C487.038,606.35,487.248,605.819,487.248,605.819z"/>
				</g>
				<polygon fill="#E30613" points="483.019,603.885 480.98,610.598 482.567,609.636 483.583,611.257 485.384,604.922 				"/>
			</g>
		</g>
		<g>
			<circle fill="#C2E0CB" cx="166.369" cy="542.932" r="41.359"/>
			<circle fill="none" stroke="#C3E1CC" stroke-width="1.0116" stroke-miterlimit="10" cx="166.369" cy="542.932" r="44.706"/>
			<g>
				<polygon fill="#FFD600" points="179.822,568.48 132.48,515.465 135.94,509.599 140.901,505.169 146.377,503.055 
					193.719,556.069 				"/>
				<path fill="#F7AB19" d="M140.431,505.588l-4.491,4.011l-3.46,5.866l47.342,53.015l6.504-5.808
					C165.439,548.983,143.306,521.874,140.431,505.588z"/>
				<g>
					<polygon fill="#C67F16" points="190.083,559.317 141.516,504.931 140.901,505.169 140.379,505.635 189.1,560.194 					"/>
					<polygon fill="#C67F16" points="135.94,509.599 135.499,510.347 184.044,564.709 185.027,563.832 136.305,509.272 					"/>
				</g>
				<path fill="#FFEBC5" d="M179.822,568.48l17.777,7.081c0.615,0.245,1.247-0.316,1.076-0.956l-4.956-18.535l-5.079,2.415
					l-5.193,4.638L179.822,568.48z"/>
				<path fill="#E4C399" d="M198.586,574.272c-5.796-3.13-10.794-8.167-13.704-12.432l-1.435,1.282l-3.625,5.358l17.777,7.081
					c0.615,0.245,1.247-0.316,1.076-0.956L198.586,574.272z"/>
				<path fill="#36311C" d="M198.675,574.604l-1.714-6.412c-2.311,0.257-4.474,1.929-5.986,4.729l6.624,2.639
					C198.214,575.806,198.846,575.244,198.675,574.604z"/>
			</g>
		</g>
		<g>
			<circle fill="#C2E0CB" cx="120.09" cy="622.869" r="41.359"/>
			<circle fill="none" stroke="#C3E1CC" stroke-miterlimit="10" cx="120.09" cy="622.869" r="45.407"/>
			<g>
				<g>
					<path fill="#75CCF4" d="M124.665,611.635l-3.912-18.358l-10.881,2.319l3.912,18.358l-5.695,39.445
						c-0.37,2.563,1.926,4.712,4.459,4.172l31.026-6.611c2.533-0.54,3.754-3.437,2.371-5.627L124.665,611.635z"/>
					<path fill="#75CCF4" d="M121.267,586.617l-14.579,3.106c-0.811,0.173-1.328,0.97-1.155,1.781l0.711,3.339
						c0.173,0.811,0.97,1.328,1.781,1.155l14.579-3.106c0.811-0.173,1.328-0.97,1.155-1.781l-0.711-3.339
						C122.875,586.961,122.078,586.444,121.267,586.617z"/>
					<path fill="#BCCF00" d="M125.082,616.366l-9.739,2.075l-4.515,34.952c-0.127,0.98,0.753,1.791,1.72,1.585l29.979-6.388
						c0.967-0.206,1.44-1.305,0.924-2.149L125.082,616.366z"/>
					
						<circle fill="none" stroke="#EEE300" stroke-width="1.0272" stroke-linecap="round" stroke-linejoin="round" stroke-miterlimit="10" cx="121.635" cy="632.696" r="1.351"/>
					
						<circle fill="none" stroke="#EEE300" stroke-width="2.0545" stroke-linecap="round" stroke-linejoin="round" stroke-miterlimit="10" cx="121.867" cy="642.122" r="2.413"/>
					
						<circle fill="none" stroke="#EEE300" stroke-width="1.0272" stroke-linecap="round" stroke-linejoin="round" stroke-miterlimit="10" cx="129.257" cy="636.5" r="1.641"/>
					<path opacity="0.45" fill="#40BBCF" enable-background="new    " d="M117.101,620.248c0.581-4.012,0.827-6.098,0.27-8.713
						c-0.557-2.615-2.69-14.764-2.69-14.764l6.522-1.39l-0.448-2.105l-10.881,2.319l3.912,18.358l-5.695,39.445
						c-0.37,2.563,1.926,4.712,4.459,4.172l15.833-3.374C109.224,654.933,115.068,634.273,117.101,620.248z"/>
				</g>
				<path fill="#FFFFFF" d="M128.116,621.401c0,0,7.633,14.541,14.42,23.099C140.577,640.113,130.438,624.747,128.116,621.401z"/>
			</g>
		</g>
	</g>
</g>
<g id="DESIGNED_BY_FREEPIK">
</g>
</svg>
